<svg viewBox="0 0 398 94" fill="none" xmlns="http://www.w3.org/2000/svg">
<mask id="path-1-outside-1" maskUnits="userSpaceOnUse" x="116.25" y="1.94501" width="282" height="47" fill="black">
<rect fill="white" x="116.25" y="1.94501" width="282" height="47"/>
<path d="M134.955 3.94501C140.328 3.94501 143.015 6.80501 143.015 12.525V37.42C143.015 43.14 140.328 46 134.955 46H118.25V3.94501H134.955ZM133.915 38.46V11.42C133.915 11.0733 133.785 10.77 133.525 10.51C133.308 10.25 133.027 10.12 132.68 10.12H127.35V39.76H132.68C133.027 39.76 133.308 39.63 133.525 39.37C133.785 39.11 133.915 38.8067 133.915 38.46ZM165.398 38.46H175.473V46H156.298V3.94501H175.473V11.355H165.398V21.235H174.823V28.385H165.398V38.46ZM204.201 3.94501H212.976L204.266 46H193.801L185.091 3.94501H193.931L199.066 34.625L204.201 3.94501ZM218.5 41.97C218.5 40.67 218.955 39.565 219.865 38.655C220.775 37.745 221.88 37.29 223.18 37.29C224.48 37.29 225.585 37.745 226.495 38.655C227.405 39.565 227.86 40.67 227.86 41.97C227.86 43.27 227.405 44.375 226.495 45.285C225.585 46.195 224.48 46.65 223.18 46.65C221.88 46.65 220.775 46.195 219.865 45.285C218.955 44.375 218.5 43.27 218.5 41.97ZM257.624 3.94501C262.997 3.94501 265.684 6.80501 265.684 12.525V37.42C265.684 43.14 262.997 46 257.624 46H240.919V3.94501H257.624ZM256.584 38.46V11.42C256.584 11.0733 256.454 10.77 256.194 10.51C255.977 10.25 255.696 10.12 255.349 10.12H250.019V39.76H255.349C255.696 39.76 255.977 39.63 256.194 39.37C256.454 39.11 256.584 38.8067 256.584 38.46ZM288.067 38.46H298.142V46H278.967V3.94501H298.142V11.355H288.067V21.235H297.492V28.385H288.067V38.46ZM319.005 29.49V46H309.905V3.94501H328.885V11.81H319.005V21.885H328.235V29.49H319.005ZM349.817 38.46H359.892V46H340.717V3.94501H359.892V11.355H349.817V21.235H359.242V28.385H349.817V38.46ZM380.755 28.775V46H371.655V3.94501H387.84C393.214 3.94501 395.9 6.80501 395.9 12.525V17.4C395.9 20.8667 394.665 23.0767 392.195 24.03C394.362 24.81 395.445 26.5867 395.445 29.36V46H386.345V30.075C386.345 29.2083 385.934 28.775 385.11 28.775H380.755ZM380.755 10.12V22.405H385.565C385.912 22.405 386.194 22.275 386.41 22.015C386.67 21.755 386.8 21.4517 386.8 21.105V11.42C386.8 11.0733 386.67 10.77 386.41 10.51C386.194 10.25 385.912 10.12 385.565 10.12H380.755Z"/>
</mask>
<path d="M134.955 3.94501C140.328 3.94501 143.015 6.80501 143.015 12.525V37.42C143.015 43.14 140.328 46 134.955 46H118.25V3.94501H134.955ZM133.915 38.46V11.42C133.915 11.0733 133.785 10.77 133.525 10.51C133.308 10.25 133.027 10.12 132.68 10.12H127.35V39.76H132.68C133.027 39.76 133.308 39.63 133.525 39.37C133.785 39.11 133.915 38.8067 133.915 38.46ZM165.398 38.46H175.473V46H156.298V3.94501H175.473V11.355H165.398V21.235H174.823V28.385H165.398V38.46ZM204.201 3.94501H212.976L204.266 46H193.801L185.091 3.94501H193.931L199.066 34.625L204.201 3.94501ZM218.5 41.97C218.5 40.67 218.955 39.565 219.865 38.655C220.775 37.745 221.88 37.29 223.18 37.29C224.48 37.29 225.585 37.745 226.495 38.655C227.405 39.565 227.86 40.67 227.86 41.97C227.86 43.27 227.405 44.375 226.495 45.285C225.585 46.195 224.48 46.65 223.18 46.65C221.88 46.65 220.775 46.195 219.865 45.285C218.955 44.375 218.5 43.27 218.5 41.97ZM257.624 3.94501C262.997 3.94501 265.684 6.80501 265.684 12.525V37.42C265.684 43.14 262.997 46 257.624 46H240.919V3.94501H257.624ZM256.584 38.46V11.42C256.584 11.0733 256.454 10.77 256.194 10.51C255.977 10.25 255.696 10.12 255.349 10.12H250.019V39.76H255.349C255.696 39.76 255.977 39.63 256.194 39.37C256.454 39.11 256.584 38.8067 256.584 38.46ZM288.067 38.46H298.142V46H278.967V3.94501H298.142V11.355H288.067V21.235H297.492V28.385H288.067V38.46ZM319.005 29.49V46H309.905V3.94501H328.885V11.81H319.005V21.885H328.235V29.49H319.005ZM349.817 38.46H359.892V46H340.717V3.94501H359.892V11.355H349.817V21.235H359.242V28.385H349.817V38.46ZM380.755 28.775V46H371.655V3.94501H387.84C393.214 3.94501 395.9 6.80501 395.9 12.525V17.4C395.9 20.8667 394.665 23.0767 392.195 24.03C394.362 24.81 395.445 26.5867 395.445 29.36V46H386.345V30.075C386.345 29.2083 385.934 28.775 385.11 28.775H380.755ZM380.755 10.12V22.405H385.565C385.912 22.405 386.194 22.275 386.41 22.015C386.67 21.755 386.8 21.4517 386.8 21.105V11.42C386.8 11.0733 386.67 10.77 386.41 10.51C386.194 10.25 385.912 10.12 385.565 10.12H380.755Z" stroke="#D3D3D3" stroke-width="4" mask="url(#path-1-outside-1)"/>
<circle cx="47" cy="47" r="45.5" stroke="#37B844" stroke-width="3"/>
<path d="M26.1512 69.2327L46.5347 16.2748L66.9181 69.2327H26.1512Z" stroke="#37B844" stroke-width="3"/>
<path d="M116.45 90V72H131.45C132.283 72 132.992 72.2917 133.575 72.875C134.158 73.4583 134.45 74.1667 134.45 75V87C134.45 87.8333 134.158 88.5417 133.575 89.125C132.992 89.7083 132.283 90 131.45 90H116.45ZM119.45 87.975H131.45C131.717 87.975 131.942 87.8833 132.125 87.7C132.325 87.5 132.425 87.2667 132.425 87V75C132.425 74.7333 132.325 74.5083 132.125 74.325C131.942 74.125 131.717 74.025 131.45 74.025H119.45C119.183 74.025 118.95 74.125 118.75 74.325C118.567 74.5083 118.475 74.7333 118.475 75V87C118.475 87.2667 118.567 87.5 118.75 87.7C118.95 87.8833 119.183 87.975 119.45 87.975ZM138.05 90V72H154.475V74.025H140.075V79.975H151.65V82.025H140.075V87.975H154.475V90H138.05ZM167.79 90L157.365 72H159.74L168.965 88.025L178.165 72H180.54L170.14 90H167.79ZM183.763 90V72H200.188V74.025H185.788V79.975H197.363V82.025H185.788V87.975H200.188V90H183.763ZM203.629 90V71.975H205.654V87.975H221.629V90H203.629ZM226.787 90C225.953 90 225.245 89.7083 224.662 89.125C224.078 88.5417 223.787 87.8333 223.787 87V75C223.787 74.1667 224.078 73.4583 224.662 72.875C225.245 72.2917 225.953 72 226.787 72H238.787C239.62 72 240.328 72.2917 240.912 72.875C241.495 73.4583 241.787 74.1667 241.787 75V87C241.787 87.8333 241.495 88.5417 240.912 89.125C240.328 89.7083 239.62 90 238.787 90H226.787ZM226.787 87.975H238.787C239.053 87.975 239.278 87.8833 239.462 87.7C239.662 87.5 239.762 87.2667 239.762 87V75C239.762 74.7333 239.662 74.5083 239.462 74.325C239.278 74.125 239.053 74.025 238.787 74.025H226.787C226.52 74.025 226.287 74.125 226.087 74.325C225.903 74.5083 225.812 74.7333 225.812 75V87C225.812 87.2667 225.903 87.5 226.087 87.7C226.287 87.8833 226.52 87.975 226.787 87.975ZM245.29 90V72.025H260.29C261.123 72.025 261.831 72.325 262.415 72.925C262.998 73.5083 263.29 74.2083 263.29 75.025V80.3C263.29 81.1167 262.998 81.825 262.415 82.425C261.831 83.0083 261.123 83.3 260.29 83.3H247.315V90H245.29ZM248.29 81.25H260.29C260.556 81.25 260.781 81.1583 260.965 80.975C261.165 80.7917 261.265 80.5667 261.265 80.3V75.025C261.265 74.7583 261.165 74.5333 260.965 74.35C260.781 74.15 260.556 74.05 260.29 74.05H248.29C248.023 74.05 247.79 74.15 247.59 74.35C247.406 74.5333 247.315 74.7583 247.315 75.025V80.3C247.315 80.5667 247.406 80.7917 247.59 80.975C247.79 81.1583 248.023 81.25 248.29 81.25ZM265.815 90V72H268.59L276.065 80.9L283.54 72H286.315V90H284.29V74.3L276.065 84.075L267.84 74.3V90H265.815ZM289.808 90V72H306.233V74.025H291.833V79.975H303.408V82.025H291.833V87.975H306.233V90H289.808ZM309.649 90V72H312.424L325.624 87.7V72H327.649V90H324.874L311.674 74.3V90H309.649ZM338.3 90V74.025H330.3V72H348.3V74.025H340.325V90H338.3Z" fill="#37B844"/>
</svg>
