<svg width="381" height="94" viewBox="0 0 381 94" fill="none" xmlns="http://www.w3.org/2000/svg">
<mask id="path-1-outside-1_104_2" maskUnits="userSpaceOnUse" x="116.25" y="1.94501" width="265" height="47" fill="black">
<rect fill="white" x="116.25" y="1.94501" width="265" height="47"/>
<path d="M134.955 3.94501C140.328 3.94501 143.015 6.80501 143.015 12.525V37.42C143.015 43.14 140.328 46 134.955 46H118.25V3.94501H134.955ZM133.915 38.46V11.42C133.915 11.0733 133.785 10.77 133.525 10.51C133.308 10.25 133.027 10.12 132.68 10.12H127.35V39.76H132.68C133.027 39.76 133.308 39.63 133.525 39.37C133.785 39.11 133.915 38.8067 133.915 38.46ZM165.398 38.46H175.473V46H156.298V3.94501H175.473V11.355H165.398V21.235H174.823V28.385H165.398V38.46ZM204.201 3.94501H212.976L204.266 46H193.801L185.091 3.94501H193.931L199.066 34.625L204.201 3.94501ZM240.205 3.94501C245.578 3.94501 248.265 6.80501 248.265 12.525V37.42C248.265 43.14 245.578 46 240.205 46H223.5V3.94501H240.205ZM239.165 38.46V11.42C239.165 11.0733 239.035 10.77 238.775 10.51C238.558 10.25 238.277 10.12 237.93 10.12H232.6V39.76H237.93C238.277 39.76 238.558 39.63 238.775 39.37C239.035 39.11 239.165 38.8067 239.165 38.46ZM270.648 38.46H280.723V46H261.548V3.94501H280.723V11.355H270.648V21.235H280.073V28.385H270.648V38.46ZM301.586 29.49V46H292.486V3.94501H311.466V11.81H301.586V21.885H310.816V29.49H301.586ZM332.398 38.46H342.473V46H323.298V3.94501H342.473V11.355H332.398V21.235H341.823V28.385H332.398V38.46ZM363.336 28.775V46H354.236V3.94501H370.421C375.795 3.94501 378.481 6.80501 378.481 12.525V17.4C378.481 20.8667 377.246 23.0767 374.776 24.03C376.943 24.81 378.026 26.5867 378.026 29.36V46H368.926V30.075C368.926 29.2083 368.515 28.775 367.691 28.775H363.336ZM363.336 10.12V22.405H368.146C368.493 22.405 368.775 22.275 368.991 22.015C369.251 21.755 369.381 21.4517 369.381 21.105V11.42C369.381 11.0733 369.251 10.77 368.991 10.51C368.775 10.25 368.493 10.12 368.146 10.12H363.336Z"/>
</mask>
<path d="M134.955 3.94501C140.328 3.94501 143.015 6.80501 143.015 12.525V37.42C143.015 43.14 140.328 46 134.955 46H118.25V3.94501H134.955ZM133.915 38.46V11.42C133.915 11.0733 133.785 10.77 133.525 10.51C133.308 10.25 133.027 10.12 132.68 10.12H127.35V39.76H132.68C133.027 39.76 133.308 39.63 133.525 39.37C133.785 39.11 133.915 38.8067 133.915 38.46ZM165.398 38.46H175.473V46H156.298V3.94501H175.473V11.355H165.398V21.235H174.823V28.385H165.398V38.46ZM204.201 3.94501H212.976L204.266 46H193.801L185.091 3.94501H193.931L199.066 34.625L204.201 3.94501ZM240.205 3.94501C245.578 3.94501 248.265 6.80501 248.265 12.525V37.42C248.265 43.14 245.578 46 240.205 46H223.5V3.94501H240.205ZM239.165 38.46V11.42C239.165 11.0733 239.035 10.77 238.775 10.51C238.558 10.25 238.277 10.12 237.93 10.12H232.6V39.76H237.93C238.277 39.76 238.558 39.63 238.775 39.37C239.035 39.11 239.165 38.8067 239.165 38.46ZM270.648 38.46H280.723V46H261.548V3.94501H280.723V11.355H270.648V21.235H280.073V28.385H270.648V38.46ZM301.586 29.49V46H292.486V3.94501H311.466V11.81H301.586V21.885H310.816V29.49H301.586ZM332.398 38.46H342.473V46H323.298V3.94501H342.473V11.355H332.398V21.235H341.823V28.385H332.398V38.46ZM363.336 28.775V46H354.236V3.94501H370.421C375.795 3.94501 378.481 6.80501 378.481 12.525V17.4C378.481 20.8667 377.246 23.0767 374.776 24.03C376.943 24.81 378.026 26.5867 378.026 29.36V46H368.926V30.075C368.926 29.2083 368.515 28.775 367.691 28.775H363.336ZM363.336 10.12V22.405H368.146C368.493 22.405 368.775 22.275 368.991 22.015C369.251 21.755 369.381 21.4517 369.381 21.105V11.42C369.381 11.0733 369.251 10.77 368.991 10.51C368.775 10.25 368.493 10.12 368.146 10.12H363.336Z" stroke="#D3D3D3" stroke-width="4" mask="url(#path-1-outside-1_104_2)"/>
<circle cx="47" cy="47" r="45.5" stroke="#37B844" stroke-width="3"/>
<path d="M26.1512 69.2327L46.5347 16.2748L66.9181 69.2327H26.1512Z" stroke="#37B844" stroke-width="3"/>
<path d="M116.45 90V72H131.45C132 72 132.5 72.1333 132.95 72.4C133.417 72.6667 133.783 73.0333 134.05 73.5C134.317 73.95 134.45 74.45 134.45 75V87C134.45 87.55 134.317 88.0583 134.05 88.525C133.783 88.975 133.417 89.3333 132.95 89.6C132.5 89.8667 132 90 131.45 90H116.45ZM119.45 87.975H131.45C131.717 87.975 131.942 87.8833 132.125 87.7C132.325 87.5 132.425 87.2667 132.425 87V75C132.425 74.7333 132.325 74.5083 132.125 74.325C131.942 74.125 131.717 74.025 131.45 74.025H119.45C119.183 74.025 118.95 74.125 118.75 74.325C118.567 74.5083 118.475 74.7333 118.475 75V87C118.475 87.2667 118.567 87.5 118.75 87.7C118.95 87.8833 119.183 87.975 119.45 87.975ZM138.05 90V72H154.475V74.025H140.075V79.975H151.65V82.025H140.075V87.975H154.475V90H138.05ZM167.79 90L157.365 72H159.74L168.965 88.025L178.165 72H180.54L170.14 90H167.79ZM183.763 90V72H200.188V74.025H185.788V79.975H197.363V82.025H185.788V87.975H200.188V90H183.763ZM203.629 90V71.975H205.654V87.975H221.629V90H203.629ZM226.787 90C226.237 90 225.728 89.8667 225.262 89.6C224.812 89.3333 224.453 88.975 224.187 88.525C223.92 88.0583 223.787 87.55 223.787 87V75C223.787 74.45 223.92 73.95 224.187 73.5C224.453 73.0333 224.812 72.6667 225.262 72.4C225.728 72.1333 226.237 72 226.787 72H238.787C239.337 72 239.837 72.1333 240.287 72.4C240.753 72.6667 241.12 73.0333 241.387 73.5C241.653 73.95 241.787 74.45 241.787 75V87C241.787 87.55 241.653 88.0583 241.387 88.525C241.12 88.975 240.753 89.3333 240.287 89.6C239.837 89.8667 239.337 90 238.787 90H226.787ZM226.787 87.975H238.787C239.053 87.975 239.278 87.8833 239.462 87.7C239.662 87.5 239.762 87.2667 239.762 87V75C239.762 74.7333 239.662 74.5083 239.462 74.325C239.278 74.125 239.053 74.025 238.787 74.025H226.787C226.52 74.025 226.287 74.125 226.087 74.325C225.903 74.5083 225.812 74.7333 225.812 75V87C225.812 87.2667 225.903 87.5 226.087 87.7C226.287 87.8833 226.52 87.975 226.787 87.975ZM245.29 90V72.025H260.29C260.84 72.025 261.34 72.1667 261.79 72.45C262.256 72.7167 262.623 73.075 262.89 73.525C263.156 73.975 263.29 74.475 263.29 75.025V80.3C263.29 80.85 263.156 81.35 262.89 81.8C262.623 82.25 262.256 82.6167 261.79 82.9C261.34 83.1667 260.84 83.3 260.29 83.3H247.315V90H245.29ZM248.29 81.25H260.29C260.556 81.25 260.781 81.1583 260.965 80.975C261.165 80.7917 261.265 80.5667 261.265 80.3V75.025C261.265 74.7583 261.165 74.5333 260.965 74.35C260.781 74.15 260.556 74.05 260.29 74.05H248.29C248.023 74.05 247.79 74.15 247.59 74.35C247.406 74.5333 247.315 74.7583 247.315 75.025V80.3C247.315 80.5667 247.406 80.7917 247.59 80.975C247.79 81.1583 248.023 81.25 248.29 81.25ZM265.815 90V72H268.59L276.065 80.9L283.54 72H286.315V90H284.29V74.3L276.065 84.075L267.84 74.3V90H265.815ZM289.808 90V72H306.233V74.025H291.833V79.975H303.408V82.025H291.833V87.975H306.233V90H289.808ZM309.649 90V72H312.424L325.624 87.7V72H327.649V90H324.874L311.674 74.3V90H309.649ZM338.3 90V74.025H330.3V72H348.3V74.025H340.325V90H338.3Z" fill="#37B844"/>
<path d="M116.45 90V72H131.45C132 72 132.5 72.1333 132.95 72.4C133.417 72.6667 133.783 73.0333 134.05 73.5C134.317 73.95 134.45 74.45 134.45 75V87C134.45 87.55 134.317 88.0583 134.05 88.525C133.783 88.975 133.417 89.3333 132.95 89.6C132.5 89.8667 132 90 131.45 90H116.45ZM119.45 87.975H131.45C131.717 87.975 131.942 87.8833 132.125 87.7C132.325 87.5 132.425 87.2667 132.425 87V75C132.425 74.7333 132.325 74.5083 132.125 74.325C131.942 74.125 131.717 74.025 131.45 74.025H119.45C119.183 74.025 118.95 74.125 118.75 74.325C118.567 74.5083 118.475 74.7333 118.475 75V87C118.475 87.2667 118.567 87.5 118.75 87.7C118.95 87.8833 119.183 87.975 119.45 87.975ZM138.05 90V72H154.475V74.025H140.075V79.975H151.65V82.025H140.075V87.975H154.475V90H138.05ZM167.79 90L157.365 72H159.74L168.965 88.025L178.165 72H180.54L170.14 90H167.79ZM183.763 90V72H200.188V74.025H185.788V79.975H197.363V82.025H185.788V87.975H200.188V90H183.763ZM203.629 90V71.975H205.654V87.975H221.629V90H203.629ZM226.787 90C226.237 90 225.728 89.8667 225.262 89.6C224.812 89.3333 224.453 88.975 224.187 88.525C223.92 88.0583 223.787 87.55 223.787 87V75C223.787 74.45 223.92 73.95 224.187 73.5C224.453 73.0333 224.812 72.6667 225.262 72.4C225.728 72.1333 226.237 72 226.787 72H238.787C239.337 72 239.837 72.1333 240.287 72.4C240.753 72.6667 241.12 73.0333 241.387 73.5C241.653 73.95 241.787 74.45 241.787 75V87C241.787 87.55 241.653 88.0583 241.387 88.525C241.12 88.975 240.753 89.3333 240.287 89.6C239.837 89.8667 239.337 90 238.787 90H226.787ZM226.787 87.975H238.787C239.053 87.975 239.278 87.8833 239.462 87.7C239.662 87.5 239.762 87.2667 239.762 87V75C239.762 74.7333 239.662 74.5083 239.462 74.325C239.278 74.125 239.053 74.025 238.787 74.025H226.787C226.52 74.025 226.287 74.125 226.087 74.325C225.903 74.5083 225.812 74.7333 225.812 75V87C225.812 87.2667 225.903 87.5 226.087 87.7C226.287 87.8833 226.52 87.975 226.787 87.975ZM245.29 90V72.025H260.29C260.84 72.025 261.34 72.1667 261.79 72.45C262.256 72.7167 262.623 73.075 262.89 73.525C263.156 73.975 263.29 74.475 263.29 75.025V80.3C263.29 80.85 263.156 81.35 262.89 81.8C262.623 82.25 262.256 82.6167 261.79 82.9C261.34 83.1667 260.84 83.3 260.29 83.3H247.315V90H245.29ZM248.29 81.25H260.29C260.556 81.25 260.781 81.1583 260.965 80.975C261.165 80.7917 261.265 80.5667 261.265 80.3V75.025C261.265 74.7583 261.165 74.5333 260.965 74.35C260.781 74.15 260.556 74.05 260.29 74.05H248.29C248.023 74.05 247.79 74.15 247.59 74.35C247.406 74.5333 247.315 74.7583 247.315 75.025V80.3C247.315 80.5667 247.406 80.7917 247.59 80.975C247.79 81.1583 248.023 81.25 248.29 81.25ZM265.815 90V72H268.59L276.065 80.9L283.54 72H286.315V90H284.29V74.3L276.065 84.075L267.84 74.3V90H265.815ZM289.808 90V72H306.233V74.025H291.833V79.975H303.408V82.025H291.833V87.975H306.233V90H289.808ZM309.649 90V72H312.424L325.624 87.7V72H327.649V90H324.874L311.674 74.3V90H309.649ZM338.3 90V74.025H330.3V72H348.3V74.025H340.325V90H338.3Z" fill="#37B844"/>
</svg>
