<svg width="45" height="38" viewBox="0 0 45 38" fill="#37b844" xmlns="http://www.w3.org/2000/svg">
<g clip-path="url(#clip0)">
<path d="M35.9762 1.92107C38.3442 1.92107 40.2682 2.75973 41.7482 4.43707C43.2282 6.21307 43.9682 8.4824 43.9682 11.2451C43.9682 14.4024 43.3269 17.5597 42.0442 20.7171C40.6629 23.9731 38.8375 26.9331 36.5682 29.5971C34.2989 32.2611 31.7829 34.2837 29.0202 35.6651L25.7642 30.0411C28.2309 28.3637 30.3029 26.5877 31.9802 24.7131C33.5589 22.9371 34.4962 20.6677 34.7922 17.9051C32.9175 17.8064 31.3389 16.9184 30.0562 15.2411C28.6749 13.6624 27.9842 11.8864 27.9842 9.91307C27.9842 7.84107 28.7735 5.9664 30.3522 4.28906C31.8322 2.7104 33.7069 1.92107 35.9762 1.92107ZM12.8882 1.92106C15.0589 1.92106 16.9335 2.75973 18.5122 4.43707C19.9922 6.21307 20.7322 8.4824 20.7322 11.2451C20.7322 14.4024 20.0909 17.5597 18.8082 20.7171C17.4269 23.9731 15.6015 26.9331 13.3322 29.5971C11.0629 32.2611 8.54687 34.2837 5.78421 35.6651L2.67621 30.0411C5.14287 28.3637 7.16554 26.5877 8.74421 24.7131C10.3229 22.9371 11.2109 20.6677 11.4082 17.9051C9.63221 17.8064 8.10288 16.9184 6.82021 15.2411C5.43887 13.6624 4.74821 11.8864 4.74821 9.91307C4.74821 7.84106 5.58687 5.96639 7.26421 4.28906C8.84287 2.7104 10.7175 1.92106 12.8882 1.92106Z" fill="#37b844"/>
</g>
<defs>
<clipPath id="clip0">
<rect width="45" height="38" fill="white"/>
</clipPath>
</defs>
</svg>
