<svg width="60" height="60" viewBox="0 0 60 60" fill="none" xmlns="http://www.w3.org/2000/svg">
<path d="M5.97404 7.48505L6.63104 6.83305L7.28705 7.48805L8.64806 8.84705L9.30804 9.50404L8.64905 10.164L4.31705 14.497L6.44005 16.6201L8.38506 14.675L9.04405 14.0161L9.70004 14.675L11.062 16.032L11.7211 16.69L11.063 17.3491L9.11404 19.2961L11.2401 21.4221L13.1841 19.4741L13.841 18.817L14.5 19.4741L15.8611 20.834L16.521 21.4901L15.8611 22.149L13.916 24.096L15.5511 25.73L25.728 15.553L10.5511 0.375046C10.3079 0.135646 9.9803 0.00146484 9.63905 0.00146484C9.2978 0.00146484 8.97024 0.135646 8.72705 0.375046L0.375046 8.72705C0.135345 8.97028 0.000976562 9.29805 0.000976562 9.63954C0.000976562 9.98103 0.135345 10.3088 0.375046 10.552L1.64105 11.816L5.80804 7.64804L5.97404 7.48505ZM43.584 20.911L33.623 10.951L26.8291 17.7451L16.2081 28.3651L5.26605 39.3051L5.74805 39.634L7.54805 40.8621L7.73605 40.9901L7.84406 41.19L7.94405 41.368L9.76405 44.752L13.326 46.669L13.526 46.777L13.6541 46.9651L14.8201 48.678L15.22 49.269L26.166 38.324L38.3181 26.1721L43.584 20.911ZM54.1581 43.983L38.9821 28.8051L28.8031 38.985L30.438 40.619L32.384 38.673L33.0421 38.0121L33.701 38.674L35.06 40.036L35.7171 40.6931L35.06 41.351L33.114 43.2961L35.2381 45.42L37.185 43.4731L37.8441 42.816L38.502 43.4731L39.86 44.833L40.519 45.4911L39.86 46.149L37.9131 48.095L40.037 50.2191L44.2041 46.05L44.373 45.8831L45.0311 45.23L45.687 45.886L47.0461 47.2451L47.703 47.9051L47.0461 48.563L42.716 52.893L43.981 54.157C44.2243 54.397 44.5523 54.5316 44.894 54.5316C45.2358 54.5316 45.5638 54.397 45.8071 54.157L49.983 49.9821L54.1581 45.803C54.3971 45.5599 54.5311 45.2325 54.5311 44.8915C54.5311 44.5505 54.3971 44.2232 54.1581 43.98V43.983ZM8.29105 46.6031L8.04504 46.471L7.91306 46.226L7.54305 45.539L5.95905 42.592L4.98206 41.928L4.31004 41.4691L3.46104 46.738L7.79904 51.0731L13.0591 50.2271L11.922 48.558L8.29105 46.6031ZM51.7661 12.725C52.0052 12.4819 52.1391 12.1546 52.1391 11.8136C52.1391 11.4725 52.0052 11.1452 51.7661 10.9021L43.6281 2.76605C43.3849 2.52695 43.0576 2.39296 42.7166 2.39296C42.3755 2.39296 42.0482 2.52695 41.8051 2.76605L37.241 7.33104L47.201 17.2921L51.7661 12.725ZM45.5551 18.937L35.5941 8.97705L35.269 9.30205L45.2301 19.2621L45.5551 18.937ZM2.83804 50.605L2.63104 51.9051L4.96104 51.532L3.00604 49.575L2.83804 50.605Z" fill="#d3d3d3"/>
</svg>
